<svg xmlns="http://www.w3.org/2000/svg" xmlns:svg="http://www.w3.org/2000/svg" width="5993.0625" height="1217.0143" viewBox="-2 -2 5993.0625 1217.0143" version="1.1" id="pcm_wordmark" xml:space="preserve">
  <defs id="defs1">
    <style type="text/css">
      <![CDATA[
        .wm-consilium-path {
          fill-rule: nonzero;
          stroke-width: 0.411098;
          stroke-linecap: round;
        }

        .wm-peregrine-path {
          fill-rule: nonzero;
          stroke-width: 0.1;
          stroke-linecap: round;
        }
        .wm_line {
          stroke-width: 2.13068;
        }
      ]]>
    </style>
  </defs>
   <g id="wm_peregrine" transform="translate(3272.3615,144.60613)">
    <path id="char-0-1" class="wm-peregrine-path" d="m -3156.5562,-133.02919 v 0 h 96 q 54,0 90.38,17.63 36.37,17.62 55.5,50.25 19.12,32.62 19.12,76.87 v 0 q 0.75,35.25 -13.12,64.13 -13.88,28.87 -37.13,48.37 -23.25,19.5 -52.87,28.88 -29.63,9.37 -61.13,6.37 -31.5,-3 -61.5,-20.25 v 0 -7.5 q 0,0 11.63,1.13 11.62,1.12 30,-0.38 18.37,-1.5 38.25,-9 19.87,-7.5 37.5,-25.5 17.62,-18 26.62,-48.75 v 0 q 2.25,-9 3.75,-21.37 1.5,-12.38 0.75,-23.63 v 0 q -0.75,-50.25 -26.62,-81 -25.88,-30.75 -73.13,-30.75 v 0 h -76.5 q 0,0 -1.87,-6.37 -1.88,-6.38 -3.75,-12.75 z m -60,0 h 69.75 v 525 h -69.75 z m 0,470.25 h 2.25 v 54.75 h -60 v -7.5 q 0,0 4.88,0 4.87,0 4.87,0 v 0 q 19.5,0 33.38,-13.87 13.87,-13.88 14.62,-33.38 z m 2.25,-470.25 v 54.75 h -2.25 q 0,-19.5 -14.25,-33.37 -14.25,-13.88 -33.75,-13.88 v 0 q 0,0 -4.5,0 -4.5,0 -4.5,0 v 0 l -0.75,-7.5 z m 65.25,525 v -54.75 h 2.25 q 0.75,19.5 14.63,33.38 13.87,13.87 33.37,13.87 v 0 q 0.75,0 5.25,0 4.5,0 4.5,0 v 0 7.5 z"/>
    <path id="char-0-2" class="wm-peregrine-path" d="m -2546.1062,-133.02919 h 69.75 v 525 h -69.75 z m 67.5,498.75 h 203.25 l 6,26.25 h -209.25 z m 0,-245.25 h 172.5 v 25.5 h -172.5 z m 0,-253.5 h 206.25 v 26.25 h -206.25 z m 244.5,393 h 7.5 l -40.5,132 h -132 l 27,-26.25 q 39,0 65.25,-13.12 26.25,-13.13 43.5,-37.13 17.25,-24 29.25,-55.5 z m -124.5,-115.5 h 52.5 v 57 h -7.5 v -9.75 q 0,-18.75 -12.75,-32.25 -12.75,-13.5 -32.25,-13.5 v 0 z m 45,-79.5 h 7.5 v 57 h -52.5 v -1.5 q 19.5,-0.75 32.25,-14.25 12.75,-13.5 12.75,-32.25 v 0 z m -21,-174 h 62.25 v 69 h -7.5 v -12 q 0,-23.25 -15.37,-39 -15.38,-15.75 -39.38,-16.5 v 0 z m 62.25,-37.5 v 0 21.75 l -91.5,-8.25 q 16.5,0 34.88,-2.25 18.37,-2.25 34.12,-5.25 15.75,-3 22.5,-6 z m -273.75,483.75 h 2.25 v 54.75 h -60 v -7.5 q 0,0 4.88,0 4.87,0 4.87,0 v 0 q 19.5,0 33.38,-13.87 13.87,-13.88 14.62,-33.38 z m 2.25,-470.25 v 54.75 h -2.25 q 0,-19.5 -14.25,-33.37 -14.25,-13.88 -33.75,-13.88 v 0 q 0,0 -4.5,0 -4.5,0 -4.5,0 v 0 l -0.75,-7.5 z"/>
    <path id="char-0-3" class="wm-peregrine-path" d="m -1823.1562,-133.02919 v 0 h 102.75 q 33.75,0 63,9 29.25,9 49.88,26.63 20.62,17.62 32.62,43.87 12,26.25 12,61.5 v 0 q 0,34.5 -15.75,67.13 -15.75,32.62 -43.87,53.62 -28.13,21 -66.38,22.5 v 0 q 16.5,6 33,23.25 16.5,17.25 28.5,33.75 v 0 q 0,0.75 9.38,14.25 9.37,13.5 23.62,33.38 14.25,19.87 28.88,39.37 14.62,19.5 25.87,32.25 v 0 q 15,18 29.63,30.38 14.62,12.37 31.5,19.5 16.87,7.12 37.87,7.12 v 0 7.5 h -52.5 q -36,0 -63.75,-9.37 -27.75,-9.38 -48,-25.5 -20.25,-16.13 -34.5,-34.88 v 0 q -3,-5.25 -12.37,-19.5 -9.38,-14.25 -21,-32.62 -11.63,-18.38 -22.88,-36.38 -11.25,-18 -19.5,-31.12 -8.25,-13.13 -10.5,-16.88 v 0 q -12.75,-20.25 -28.5,-34.87 -15.75,-14.63 -34.5,-15.38 v 0 -7.5 q 0.75,0 10.88,0.38 10.12,0.37 23.62,-0.38 v 0 q 19.5,-0.75 41.63,-6.75 22.12,-6 40.5,-23.25 18.37,-17.25 27.37,-51 v 0 q 2.25,-7.5 3.38,-18.75 1.12,-11.25 0.37,-23.25 v 0 q -0.75,-51.75 -25.87,-80.62 -25.13,-28.88 -65.63,-30.38 v 0 q -17.25,-1.5 -36,-1.12 -18.75,0.37 -32.25,0.37 -13.5,0 -15,0 v 0 q 0,-0.75 -1.87,-7.12 -1.88,-6.38 -3.75,-12.75 z m -60,0 h 69.75 v 525 h -69.75 z m 0,470.25 h 2.25 v 54.75 h -60 v -7.5 q 0,0 4.88,0 4.87,0 4.87,0 v 0 q 19.5,0 33.38,-13.87 13.87,-13.88 14.62,-33.38 z m 2.25,-470.25 v 54.75 h -2.25 q -0.75,-19.5 -14.62,-33.37 -13.88,-13.88 -33.38,-13.88 v 0 q 0,0 -4.87,0 -4.88,0 -4.88,0 v 0 -7.5 z m 65.25,525 v -54.75 h 2.25 q 0,19.5 14.25,33.38 14.25,13.87 33.75,13.87 v 0 q 0.75,0 4.88,0 4.12,0 4.12,0 v 0 7.5 z"/>
    <path id="char-0-4" class="wm-peregrine-path" d="m -1154.9562,-133.02919 h 69.75 v 525 h -69.75 z m 67.5,498.75 h 203.25 l 6,26.25 h -209.25 z m 0,-245.25 h 172.5 v 25.5 h -172.5 z m 0,-253.5 h 206.25 v 26.25 h -206.25 z m 244.5,393 h 7.5 l -40.5,132 h -132 l 27,-26.25 q 39,0 65.25,-13.12 26.25,-13.13 43.5,-37.13 17.25,-24 29.25,-55.5 z m -124.5,-115.5 h 52.5 v 57 h -7.5 v -9.75 q 0,-18.75 -12.75,-32.25 -12.75,-13.5 -32.25,-13.5 v 0 z m 45,-79.5 h 7.5 v 57 h -52.5 v -1.5 q 19.5,-0.75 32.25,-14.25 12.75,-13.5 12.75,-32.25 v 0 z m -21,-174 h 62.25 v 69 h -7.5 v -12 q 0,-23.25 -15.38,-39 -15.37,-15.75 -39.37,-16.5 v 0 z m 62.25,-37.5 v 0 21.75 l -91.5,-8.25 q 16.5,0 34.87,-2.25 18.38,-2.25 34.13,-5.25 15.75,-3 22.5,-6 z m -273.75,483.75 h 2.25 v 54.75 h -60 v -7.5 q 0,0 4.87,0 4.88,0 4.88,0 v 0 q 19.5,0 33.37,-13.87 13.88,-13.88 14.63,-33.38 z m 2.25,-470.25 v 54.75 h -2.25 q 0,-19.5 -14.25,-33.37 -14.25,-13.88 -33.75,-13.88 v 0 q 0,0 -4.5,0 -4.5,0 -4.5,0 v 0 l -0.75,-7.5 z"/>
    <path id="char-0-5" class="wm-peregrine-path" d="m -54.0062,181.97081 v 0 123.75 q -17.25,22.5 -48.75,45 -31.5,22.5 -76.13,37.13 -44.62,14.62 -103.12,14.62 v 0 q -81,-0.75 -142.88,-34.5 -61.87,-33.75 -96.37,-94.87 -34.5,-61.13 -34.5,-143.63 v 0 q 0,-82.5 34.5,-144 34.5,-61.5 96.37,-95.25 61.88,-33.75 144.38,-33.75 v 0 q 41.25,0 76.5,6.38 35.25,6.37 63.75,17.25 28.5,10.87 50.25,24.37 v 0 l 10.5,113.25 h -6.75 q -12,-46.5 -38.25,-76.12 -26.25,-29.63 -64.13,-44.63 -37.87,-15 -84.37,-15 v 0 q -62.25,0 -108.38,30.75 -46.12,30.75 -71.25,86.63 -25.12,55.87 -25.12,131.62 v 0 q 0,73.5 24.75,129 24.75,55.5 69.37,85.88 44.63,30.37 105.38,31.12 v 0 q 30.75,0 59.62,-8.25 28.88,-8.25 53.63,-23.25 24.75,-15 41.25,-36.75 v 0 l 0.75,-126.75 q 0,-33.75 -38.25,-33.75 v 0 h -12 v -7.5 h 168 v 7.5 h -11.25 q -39,0 -37.5,33.75 z"/>
    <path id="char-0-6" class="wm-peregrine-path" d="m 373.4438,-133.02919 v 0 h 102.75 q 33.75,0 63,9 29.25,9 49.87,26.63 20.63,17.62 32.63,43.87 12,26.25 12,61.5 v 0 q 0,34.5 -15.75,67.13 -15.75,32.62 -43.88,53.62 -28.12,21 -66.37,22.5 v 0 q 16.5,6 33,23.25 16.5,17.25 28.5,33.75 v 0 q 0,0.75 9.37,14.25 9.38,13.5 23.63,33.38 14.25,19.87 28.87,39.37 14.63,19.5 25.88,32.25 v 0 q 15,18 29.62,30.38 14.63,12.37 31.5,19.5 16.88,7.12 37.88,7.12 v 0 7.5 h -52.5 q -36,0 -63.75,-9.37 -27.75,-9.38 -48,-25.5 -20.25,-16.13 -34.5,-34.88 v 0 q -3,-5.25 -12.38,-19.5 -9.37,-14.25 -21,-32.62 -11.62,-18.38 -22.87,-36.38 -11.25,-18 -19.5,-31.12 -8.25,-13.13 -10.5,-16.88 v 0 q -12.75,-20.25 -28.5,-34.87 -15.75,-14.63 -34.5,-15.38 v 0 -7.5 q 0.75,0 10.87,0.38 10.13,0.37 23.63,-0.38 v 0 q 19.5,-0.75 41.62,-6.75 22.13,-6 40.5,-23.25 18.38,-17.25 27.38,-51 v 0 q 2.25,-7.5 3.37,-18.75 1.13,-11.25 0.38,-23.25 v 0 q -0.75,-51.75 -25.88,-80.62 -25.12,-28.88 -65.62,-30.38 v 0 q -17.25,-1.5 -36,-1.12 -18.75,0.37 -32.25,0.37 -13.5,0 -15,0 v 0 q 0,-0.75 -1.88,-7.12 -1.87,-6.38 -3.75,-12.75 z m -60,0 h 69.75 v 525 h -69.75 z m 0,470.25 h 2.25 v 54.75 h -60 v -7.5 q 0,0 4.87,0 4.88,0 4.88,0 v 0 q 19.5,0 33.37,-13.87 13.88,-13.88 14.63,-33.38 z m 2.25,-470.25 v 54.75 h -2.25 q -0.75,-19.5 -14.63,-33.37 -13.87,-13.88 -33.37,-13.88 v 0 q 0,0 -4.88,0 -4.87,0 -4.87,0 v 0 -7.5 z m 65.25,525 v -54.75 h 2.25 q 0,19.5 14.25,33.38 14.25,13.87 33.75,13.87 v 0 q 0.75,0 4.87,0 4.13,0 4.13,0 v 0 7.5 z"/>
    <path id="char-0-7" class="wm-peregrine-path" d="m 1041.6438,-133.02919 h 69.75 v 525 h -69.75 z m 0,470.25 h 2.25 v 54.75 h -60 v -7.5 q 0,0 4.87,0 4.88,0 4.88,0 v 0 q 19.5,0 33.37,-13.87 13.88,-13.88 14.63,-33.38 z m 2.25,-470.25 v 54.75 h -2.25 q -0.75,-19.5 -14.63,-33.37 -13.87,-13.88 -33.37,-13.88 v 0 q 0,0 -4.88,0 -4.87,0 -4.87,0 v 0 -7.5 z m 65.25,525 v -54.75 h 2.25 q 0.75,19.5 14.62,33.38 13.88,13.87 33.38,13.87 v 0 q 0,0 4.5,0 4.5,0 5.25,0 v 0 7.5 z m 2.25,-470.25 h -2.25 v -54.75 h 60 v 7.5 q -0.75,0 -5.25,0 -4.5,0 -4.5,0 v 0 q -19.5,0 -33.38,13.88 -13.87,13.87 -14.62,33.37 z"/>
    <path id="char-0-8" class="wm-peregrine-path" d="m 1528.3438,-58.77919 -7.5,-85.5 450,462 7.5,84.75 z m -7.5,397.5 h 2.25 v 53.25 h -62.25 v -7.5 q 0,0 6.75,0 6.75,0 7.5,0 v 0 q 18.75,0 32.25,-13.5 13.5,-13.5 13.5,-32.25 z m 56.25,0 h 2.25 q 0,18.75 13.5,32.25 13.5,13.5 32.25,13.5 v 0 q 0.75,0 7.5,0 6.75,0 6.75,0 v 0 7.5 h -62.25 z m -63.75,-483 h 7.5 l 57.75,66 0.75,470.25 h -58.5 v -442.5 q 0,-39.75 -3.75,-66.75 z m 406.5,11.25 h 57.75 v 439.5 q 0,25.5 1.87,47.63 1.88,22.12 3.75,35.25 1.88,13.12 1.88,13.12 v 0 h -6.75 l -58.5,-66.75 z m 55.5,0 h 62.25 v 7.5 q 0,0 -6.75,0 -6.75,0 -6.75,0 v 0 q -18.75,0 -32.25,13.13 -13.5,13.12 -14.25,32.62 v 0 h -2.25 z m -116.25,7.5 v -7.5 h 62.25 v 53.25 h -1.5 q -0.75,-19.5 -13.88,-32.62 -13.12,-13.13 -32.62,-13.13 v 0 q 0,0 -6.75,0 -6.75,0 -7.5,0 z"/>
    <path id="char-0-9" class="wm-peregrine-path" d="m 2378.7938,-133.02919 h 69.75 v 525 h -69.75 z m 67.5,498.75 h 203.25 l 6,26.25 h -209.25 z m 0,-245.25 h 172.5 v 25.5 h -172.5 z m 0,-253.5 h 206.25 v 26.25 h -206.25 z m 244.5,393 h 7.5 l -40.5,132 h -132 l 27,-26.25 q 39,0 65.25,-13.12 26.25,-13.13 43.5,-37.13 17.25,-24 29.25,-55.5 z m -124.5,-115.5 h 52.5 v 57 h -7.5 v -9.75 q 0,-18.75 -12.75,-32.25 -12.75,-13.5 -32.25,-13.5 v 0 z m 45,-79.5 h 7.5 v 57 h -52.5 v -1.5 q 19.5,-0.75 32.25,-14.25 12.75,-13.5 12.75,-32.25 v 0 z m -21,-174 h 62.25 v 69 h -7.5 v -12 q 0,-23.25 -15.38,-39 -15.37,-15.75 -39.37,-16.5 v 0 z m 62.25,-37.5 v 0 21.75 l -91.5,-8.25 q 16.5,0 34.87,-2.25 18.38,-2.25 34.13,-5.25 15.75,-3 22.5,-6 z m -273.75,483.75 h 2.25 v 54.75 h -60 v -7.5 q 0,0 4.87,0 4.88,0 4.88,0 v 0 q 19.5,0 33.37,-13.87 13.88,-13.88 14.63,-33.38 z m 2.25,-470.25 v 54.75 h -2.25 q 0,-19.5 -14.25,-33.37 -14.25,-13.88 -33.75,-13.88 v 0 q 0,0 -4.5,0 -4.5,0 -4.5,0 v 0 l -0.75,-7.5 z"/>
  </g> 
  <g id="wm_consilium" transform="translate(-272.13535,-246.00238)">
    <path id="char-1-1" class="wm-consilium-path" d="m 459.65709,1392.1872 24.99473,9.373 q -6.56112,17.4963 -18.74605,30.1499 -12.18493,12.6536 -28.58773,19.2147 -16.40279,6.5611 -35.77371,6.5611 v 0 q -29.36882,0 -50.77056,-12.966 -21.40174,-12.966 -33.11802,-36.711 -11.71628,-23.745 -11.71628,-56.5506 v 0 q 0,-32.8056 11.71628,-56.5506 11.71628,-23.745 33.11802,-36.711 21.40174,-12.966 50.14569,-12.966 v 0 q 19.99579,0 35.6175,5.4676 15.62171,5.4676 26.71312,16.2466 11.09141,10.7789 17.65253,26.4007 v 0 l -24.6823,11.56 q -6.87355,-17.8087 -19.83957,-27.0255 -12.96602,-9.2168 -33.58668,-9.2168 v 0 q -20.93309,0 -36.86723,9.8416 -15.93414,9.8417 -24.83852,28.2753 -8.90437,18.4336 -8.90437,44.6781 v 0 q 0,25.9321 8.43572,44.5219 8.43572,18.5898 24.05743,28.4315 15.62171,9.8417 36.86724,9.8417 v 0 q 20.62065,0 35.92993,-10.4666 15.30927,-10.4665 22.18283,-31.3996 z"/>
    <path id="char-1-2" class="wm-consilium-path" d="m 813.20104,1245.0307 v 0 q 29.36881,0 50.77056,12.966 21.40174,12.966 33.11802,36.711 11.71628,23.745 11.71628,56.5506 v 0 q 0,32.8056 -11.71628,56.5506 -11.71628,23.745 -33.11802,36.711 -21.40175,12.966 -50.77056,12.966 v 0 q -29.36881,0 -50.77056,-12.966 -21.40174,-12.966 -33.11802,-36.711 -11.71628,-23.745 -11.71628,-56.5506 v 0 q 0,-32.8056 11.71628,-56.5506 11.71628,-23.745 33.11802,-36.711 21.40175,-12.966 50.77056,-12.966 z m 0,23.4326 v 0 q -21.24552,0 -36.86723,9.8416 -15.62171,9.8417 -24.05744,28.4315 -8.43572,18.5899 -8.43572,44.5219 v 0 q 0,25.9321 8.43572,44.5219 8.43573,18.5898 24.05744,28.4315 15.62171,9.8417 36.86723,9.8417 v 0 q 21.55796,0 37.02345,-9.8417 15.46549,-9.8417 23.90122,-28.4315 8.43572,-18.5898 8.43572,-44.5219 v 0 q 0,-25.932 -8.43572,-44.5219 -8.43573,-18.5898 -23.90122,-28.4315 -15.46549,-9.8416 -37.02345,-9.8416 z"/>
    <path id="char-1-3" class="wm-consilium-path" d="m 1299.2171,1248.155 h 23.745 v 206.2066 h -30.931 l -86.2318,-138.0959 -21.8704,-38.7419 h -0.3125 l 1.2498,31.2435 v 145.5943 h -23.745 V 1248.155 h 30.931 l 85.9194,137.4711 22.1828,39.6791 h 0.3124 l -1.2497,-31.5558 z"/>
    <path id="char-1-4" class="wm-consilium-path" d="m 1654.0108,1245.0307 v 0 q 27.1818,0 46.8651,11.0914 19.6834,11.0914 32.8056,32.6494 v 0 l -20.9331,16.2466 q -11.5601,-19.9958 -26.0882,-28.2753 -14.5282,-8.2795 -35.1489,-8.2795 v 0 q -16.559,0 -27.338,4.6865 -10.779,4.6865 -15.7779,12.3411 -4.999,7.6547 -4.999,17.3401 v 0 q 0,10.9352 6.8736,19.2147 6.8735,8.2795 27.4942,12.966 v 0 l 44.6781,9.9979 q 29.6812,6.5611 41.3975,19.8396 11.7163,13.2785 11.7163,32.9618 v 0 q 0,17.4963 -9.8417,31.0872 -9.8416,13.5909 -27.6504,21.0893 -17.8087,7.4984 -41.8662,7.4984 v 0 q -22.4952,0 -39.5229,-6.0924 -17.0277,-6.0925 -29.2126,-16.4028 -12.1849,-10.3104 -19.9958,-23.1202 v 0 l 21.8704,-17.8087 q 5.9363,11.8725 15.3093,20.9331 9.373,9.0606 22.6515,14.0595 13.2784,4.999 30.4623,4.999 v 0 q 15.9341,0 27.6504,-3.9055 11.7163,-3.9054 17.965,-11.56 6.2487,-7.6547 6.2487,-18.5899 v 0 q 0,-9.9978 -6.5612,-17.9649 -6.5611,-7.9671 -24.6823,-12.0287 v 0 l -48.4273,-10.9352 q -19.0584,-4.3741 -30.7747,-12.0287 -11.7163,-7.6547 -16.8715,-18.1212 -5.1551,-10.4666 -5.1551,-22.6515 v 0 q 0,-16.559 9.2168,-30.4623 9.2168,-13.9034 26.5569,-22.3391 17.3401,-8.4357 41.0851,-8.4357 z"/>
    <path id="char-1-5" class="wm-consilium-path" d="m 1985.3719,1248.155 h 24.9947 v 206.2066 h -24.9947 z"/>
    <path id="char-1-6" class="wm-consilium-path" d="m 2300.174,1248.155 v 182.774 h 118.1001 v 23.4326 H 2275.1793 V 1248.155 Z"/>
    <path id="char-1-7" class="wm-consilium-path" d="m 2659.3418,1248.155 h 24.9947 v 206.2066 h -24.9947 z"/>
    <path id="char-1-8" class="wm-consilium-path" d="m 3077.9337,1248.155 h 24.9947 v 129.3478 q 0,39.6791 -20.9331,59.8311 -20.933,20.152 -59.9873,20.152 v 0 q -38.7419,0 -59.8312,-20.152 -21.0893,-20.152 -21.0893,-59.8311 v 0 -129.3478 h 24.9948 v 123.0991 q 0,32.1807 13.5908,47.49 13.5909,15.3093 42.3349,15.3093 v 0 q 28.7439,0 42.3348,-15.3093 13.5909,-15.3093 13.5909,-47.49 v 0 z"/>
    <path id="char-1-9" class="wm-consilium-path" d="m 3498.583,1248.155 h 38.4294 v 206.2066 h -23.745 v -129.6602 l 2.812,-54.3635 h -0.3125 l -67.7982,184.0237 h -21.2455 l -67.7982,-184.0237 h -0.3125 l 2.8119,54.3635 v 129.6602 h -23.745 V 1248.155 h 38.4294 l 45.303,125.2861 15.6217,51.5517 h 0.6249 l 15.9341,-51.2392 z"/>
  </g>
  <rect id="wm_line" class="wm_line" width="2473.8538" height="21.971727" x="3517.2087" y="1193.0427"/>
</svg>
